<svg width="203" height="203" xmlns="http://www.w3.org/2000/svg">
 <g>
  <title>Layer 1</title>
  <ellipse stroke-width="2" fill-opacity="0" ry="123.5" rx="171" id="svg_1" cy="27.5" cx="260.00001" stroke="#FFF" fill="#0fffff"/>
  <ellipse stroke-width="2" ry="132.50001" rx="154.50001" id="svg_3" cy="24.49999" cx="248.50001" stroke="#FFF" fill="#00ff00" fill-opacity="0"/>
  <ellipse stroke-width="2" fill="none" stroke="#FFF" cx="127.5" cy="20.5" id="svg_4" rx="10.48271" ry="14.01393" transform="rotate(-12.283, 127.5, 20.5)"/>
  <ellipse stroke-width="2" fill="none" stroke="#FFF" cx="126" cy="20.5" id="svg_5" rx="10.41964" ry="11.95334" transform="rotate(-12.283, 126, 20.5)"/>
  <ellipse stroke-width="2" fill="none" stroke="#FFF" cx="167.86763" cy="102.75121" id="svg_8" rx="14.36899" ry="8.15666" transform="rotate(19.79, 167.868, 102.751)"/>
  <ellipse stroke-width="2" fill="none" stroke="#FFF" cx="206.86762" cy="35.25134" id="svg_9" rx="11.99598" ry="17.07883" transform="rotate(-25.4282, 206.868, 35.2513)"/>
  <ellipse stroke-width="2" fill="none" stroke="#FFF" cx="206.86768" cy="32.7515" id="svg_10" rx="11.87002" ry="14.86538" transform="rotate(-25.4282, 206.868, 32.7515)"/>
  <ellipse stroke-width="2" fill="none" stroke="#FFF" cx="168.86758" cy="101.75107" id="svg_11" rx="13.42805" ry="8.49523" transform="rotate(19.79, 168.868, 101.751)"/>
  <ellipse stroke-width="2" fill="none" stroke="#FFF" cx="137.36758" cy="59.75106" id="svg_12" rx="8.33681" ry="4.98392" transform="rotate(41.3706, 137.368, 59.7511)"/>
  <ellipse stroke-width="2" fill="none" stroke="#FFF" cx="135.86771" cy="60.25081" id="svg_13" rx="6.9702" ry="5.77913" transform="rotate(41.3706, 135.868, 60.2508)"/>
 </g>

</svg>